<?xml version="1.0" encoding="UTF-8"?>
<svg width="40px" height="40px" viewBox="0 0 40 40" version="1.1" xmlns="http://www.w3.org/2000/svg" xmlns:xlink="http://www.w3.org/1999/xlink">
    <!-- Generator: Sketch 56.2 (81672) - https://sketch.com -->
    <title>MY_versatile-seating </title>
    <desc>Created with Sketch.</desc>
    <g id="MY_versatile-seating-" stroke="none" stroke-width="1" fill="none" fill-rule="evenodd">
        <g id="versatile-seating" transform="translate(7.000000, 4.000000)" fill="#000000">
            <g id="Group">
                <path d="M19.9783784,27.1567568 C19.7189189,27.5027027 19.1135135,27.5891892 18.7675676,27.3297297 L18.7675676,27.3297297 C14.3567568,24.1297297 13.4054054,20.6702703 15.7405405,16.9513514 C16.9513514,15.0486486 20.5837838,10.1189189 20.5837838,8.38918919 C20.5837838,6.65945946 20.5837838,5.1027027 20.5837838,3.28648649 C20.5837838,1.98918919 20.2378378,0.691891892 22.572973,0.691891892 C24.0432432,0.691891892 24.8216216,5.79459459 24.8216216,8.73513514 C24.8216216,10.6378378 23.2648649,16.6918919 20.0648649,26.8972973 C20.0648649,26.9837838 19.9783784,27.0702703 19.9783784,27.1567568 Z" id="Path-249_5_"></path>
                <path d="M18.2486486,29.7513514 C18.4216216,29.3189189 18.1621622,28.8 17.7297297,28.627027 L17.7297297,28.627027 C12.7135135,26.9837838 8.82162162,25.9459459 6.31351351,25.6 C2.16216216,24.9081081 0.605405405,25.6 0.605405405,27.8486486 C0.605405405,30.6162162 1.9027027,31.827027 4.84324324,31.827027 C7.78378378,31.827027 9.94594595,31.827027 13.4918919,31.827027 C15.3945946,31.827027 16.8648649,31.2216216 18.0756757,30.0108108 C18.1621622,29.9243243 18.2486486,29.8378378 18.2486486,29.7513514 Z" id="Path-250_6_"></path>
            </g>
            <path d="M15.2216216,10.5513514 C12.8864865,10.2054054 10.5513514,10.8108108 8.64864865,12.2810811 C6.83243243,13.6648649 5.62162162,15.6540541 5.27567568,17.8162162 L4.41081081,16.7783784 C4.15135135,16.4324324 3.71891892,16.4324324 3.45945946,16.6054054 C3.2,16.7783784 3.11351351,17.2108108 3.37297297,17.5567568 L5.1027027,19.8054054 C5.18918919,19.9783784 5.36216216,20.0648649 5.53513514,20.0648649 C5.53513514,20.0648649 5.62162162,20.0648649 5.62162162,20.0648649 C5.79459459,20.0648649 5.88108108,19.9783784 6.05405405,19.8918919 L8.3027027,18.1621622 C8.56216216,17.9027027 8.64864865,17.5567568 8.38918919,17.2108108 C8.12972973,16.9513514 7.78378378,16.8648649 7.43783784,17.1243243 L6.48648649,17.9027027 C6.83243243,16.0864865 7.87027027,14.4432432 9.34054054,13.3189189 C10.9837838,12.1081081 12.972973,11.5891892 14.9621622,11.8486486 C15.3081081,11.9351351 15.6540541,11.6756757 15.6540541,11.3297297 C15.827027,10.8972973 15.5675676,10.6378378 15.2216216,10.5513514 Z" id="Path" fill-rule="nonzero"></path>
        </g>
    </g>
</svg>