<?xml version="1.0" encoding="UTF-8"?>
<svg width="40px" height="40px" viewBox="0 0 40 40" version="1.1" xmlns="http://www.w3.org/2000/svg" xmlns:xlink="http://www.w3.org/1999/xlink">
    <!-- Generator: Sketch 56.2 (81672) - https://sketch.com -->
    <title>weather</title>
    <desc>Created with Sketch.</desc>
    <g id="weather" stroke="none" stroke-width="1" fill="none" fill-rule="evenodd">
        <g id="all-weather" transform="translate(0.000000, 7.000000)" fill="#000000" fill-rule="nonzero">
            <path d="M30,3.64705882 C29.6470588,3.64705882 29.4117647,3.29411765 29.4117647,3.05882353 L29.4117647,1.41176471 C29.4117647,1.05882353 29.7647059,0.823529412 30,0.823529412 C30.2352941,0.823529412 30.5882353,1.17647059 30.5882353,1.41176471 L30.5882353,3.17647059 C30.5882353,3.29411765 30.2352941,3.64705882 30,3.64705882 Z" id="Path"></path>
            <path d="M39.0588235,9.88235294 L37.2941176,9.88235294 C36.9411765,9.88235294 36.7058824,9.52941176 36.7058824,9.29411765 C36.7058824,8.94117647 37.0588235,8.70588235 37.2941176,8.70588235 L39.0588235,8.70588235 C39.4117647,8.70588235 39.6470588,9.05882353 39.6470588,9.29411765 C39.6470588,9.52941176 39.5294118,9.88235294 39.0588235,9.88235294 Z" id="Path"></path>
            <path d="M35.1764706,5.52941176 C34.9411765,5.52941176 34.8235294,5.41176471 34.7058824,5.29411765 C34.3529412,4.94117647 34.3529412,4.70588235 34.7058824,4.35294118 L36,3.05882353 C36.3529412,2.70588235 36.5882353,2.70588235 36.9411765,3.05882353 C37.2941176,3.41176471 37.2941176,3.64705882 36.9411765,4 L35.6470588,5.29411765 C35.5294118,5.52941176 35.2941176,5.52941176 35.1764706,5.52941176 Z" id="Path"></path>
            <path d="M24.8235294,5.41176471 C24.5882353,5.41176471 24.4705882,5.29411765 24.3529412,5.17647059 L23.0588235,3.88235294 C22.7058824,3.52941176 22.7058824,3.29411765 23.0588235,2.94117647 C23.4117647,2.58823529 23.6470588,2.58823529 24,2.94117647 L25.2941176,4.23529412 C25.6470588,4.58823529 25.6470588,4.82352941 25.2941176,5.17647059 C25.1764706,5.29411765 24.9411765,5.41176471 24.8235294,5.41176471 Z" id="Path"></path>
            <path d="M37.4117647,15.2941176 C37.1764706,15.2941176 37.0588235,15.1764706 36.9411765,15.0588235 L35.6470588,13.7647059 C35.2941176,13.4117647 35.2941176,13.1764706 35.6470588,12.8235294 C36,12.4705882 36.2352941,12.4705882 36.5882353,12.8235294 L37.7647059,14.1176471 C38.1176471,14.4705882 38.1176471,14.7058824 37.7647059,15.0588235 C37.6470588,15.2941176 37.4117647,15.2941176 37.4117647,15.2941176 Z" id="Path"></path>
            <g id="Group" transform="translate(23.529412, 3.529412)">
                <path d="M7.64705882,12 L7.52941176,11.4117647 C7.29411765,8.82352941 4.94117647,6.70588235 2.23529412,6.82352941 L1.88235294,6.82352941 L1.88235294,6.47058824 C1.52941176,6 1.41176471,5.52941176 0.941176471,4.94117647 L0.823529412,4.70588235 L0.941176471,4.35294118 C1.76470588,2.23529412 3.76470588,0.823529412 6.11764706,0.823529412 C9.17647059,0.823529412 11.6470588,3.29411765 11.6470588,6.35294118 C11.6470588,8.58823529 10.2352941,10.5882353 8.23529412,11.4117647 L7.64705882,12 Z" id="Path"></path>
            </g>
            <path d="M28.3529412,25.2941176 L5.88235294,25.2941176 C3.05882353,25.2941176 0.823529412,23.0588235 0.705882353,19.8823529 C0.588235294,16.7058824 2.82352941,14.4705882 6.23529412,14.3529412 L6.23529412,14.3529412 C6.82352941,10.2352941 10,7.17647059 14.2352941,6.58823529 C18.4705882,6 22.2352941,8 24.1176471,11.6470588 L24.1176471,11.6470588 C25.7647059,11.5294118 27.1764706,12.1176471 28.2352941,13.2941176 C29.2941176,14.3529412 29.8823529,15.6470588 29.8823529,17.1764706 L29.8823529,17.1764706 C32.1176471,17.8823529 32.9411765,20 32.7058824,21.8823529 C32.3529412,23.5294118 30.9411765,25.2941176 28.3529412,25.2941176 Z M15.5294118,7.76470588 C15.0588235,7.76470588 14.7058824,7.76470588 14.1176471,7.88235294 C10.5882353,8.47058824 7.88235294,11.0588235 7.29411765,14.5882353 L7.17647059,15.6470588 L6,15.6470588 C3.29411765,15.7647059 1.76470588,17.2941176 1.76470588,19.8823529 C2,22.2352941 3.52941176,24 5.76470588,24 L28.3529412,24 C30.1176471,24 30.9411765,22.5882353 31.1764706,21.5294118 C31.4117647,20.2352941 30.8235294,18.9411765 29.2941176,18.2352941 L28.4705882,17.8823529 L28.4705882,16.9411765 C28.4705882,15.7647059 28,14.7058824 27.0588235,14 C26.1176471,13.1764706 25.1764706,12.7058824 24,12.8235294 L23.1764706,12.9411765 L22.8235294,12.2352941 C21.1764706,8.94117647 18.2352941,7.76470588 15.5294118,7.76470588 Z" id="Shape"></path>
        </g>
    </g>
</svg>