<?xml version="1.0" encoding="UTF-8"?>
<svg width="55px" height="40px" viewBox="0 0 55 40" version="1.1" xmlns="http://www.w3.org/2000/svg" xmlns:xlink="http://www.w3.org/1999/xlink">
    <!-- Generator: Sketch 55.2 (78181) - https://sketchapp.com -->
    <title>M3_roof</title>
    <desc>Created with Sketch.</desc>
    <g id="M3_roof" stroke="none" stroke-width="1" fill="none" fill-rule="evenodd">
        <g id="glass-roof" transform="translate(0.000000, 7.000000)" fill="#000000" fill-rule="nonzero">
            <path d="M19.1542321,0.18312235 L19.1283658,0.182337825 C19.1940789,-1.96739944 19.42604,-3.89979023 19.8253334,-5.61527765 C20.2237633,-7.327055 20.9393145,-9.62570116 21.7531436,-10.667098 C21.0643153,-8.4169493 20.6361788,-6.61172721 20.468734,-5.25143172 C20.2453199,-3.43645064 20.2206334,-2.17655622 20.1730385,-0.452502515 C22.064446,-1.1775545 24.5089393,-1.54008049 27.5065186,-1.54008049 C30.5101608,-1.54008049 32.9584775,-1.1760865 34.8514688,-0.448098535 C34.8037941,-2.17441157 34.7792559,-3.43490557 34.5556516,-5.25143172 C34.3882068,-6.61172721 33.9600703,-8.4169493 33.271242,-10.667098 C34.0850711,-9.62570116 34.8006224,-7.327055 35.1990522,-5.61527765 C35.5983456,-3.89979023 35.8303067,-1.96739944 35.8960198,0.182337825 L35.861941,0.183371435 C35.8728268,1.74753247 35.8397715,3.12636481 35.762775,4.31986844 C35.6828031,5.55949267 35.5062556,7.24785823 35.2331323,9.38496509 C33.0862041,8.85567258 30.5671934,8.59102632 27.6761002,8.59102632 C24.7850069,8.59102632 22.1366682,8.85567258 19.7310839,9.38496509 C19.5146479,7.2095656 19.3676772,5.52120005 19.2901717,4.31986844 C19.2154819,3.16218014 19.1701687,1.78326477 19.1542321,0.18312235 Z M20.9520484,30.4078058 C20.9214026,29.9977591 20.8915299,29.5623984 20.8624306,29.1017235 C20.863525,29.1018831 20.8646194,29.1020427 20.8657137,29.1022022 C20.8646216,29.085841 20.8635272,29.0694603 20.8624306,29.0530604 L21.7067655,29.2204239 C24.0010004,29.5304608 25.9310349,29.6854792 27.4968692,29.6854792 C29.0941727,29.6854792 31.0353015,29.5241672 33.3202556,29.2015433 L34.0693393,29.0530604 C33.9254535,31.2047846 33.8213817,33.0259092 33.6356612,34.0952499 C33.5022538,34.8633828 33.3946409,36.0196188 33.0632359,37.1141318 C33.4523944,36.7134371 33.8696377,36.3742758 34.3126999,36.0888028 C34.7224158,35.8248156 35.1236463,35.6227909 35.56,35.4472055 C36.5150958,33.4898151 37.0146134,31.2020393 37.1401693,28.0143635 C37.174057,27.1540052 37.138959,26.4292529 37.0064245,24.6548363 C36.9685441,24.1476808 36.9499781,23.8900466 36.9304766,23.5894552 C36.901013,23.135309 36.8806756,22.7375533 36.8687783,22.357463 C36.8177841,20.7283174 36.8177841,19.3116046 36.8482093,16.8925091 C36.8654389,15.5225854 36.8683037,15.2483091 36.8683037,14.739403 C36.8683037,13.9541897 36.8677168,14.0252938 36.8960478,10.9797741 C36.9125981,9.20065577 36.9210987,7.93494343 36.9232463,6.58290375 C36.9240392,6.08370018 36.9152751,5.68918743 36.8866766,4.72426522 C36.8434787,3.26675567 36.8353072,2.57735429 36.8690568,1.72160875 C36.8910035,1.16513398 36.9336883,0.59444906 37.0081013,-0.215359719 C37.0200196,-0.345062154 37.0313583,-0.466360083 37.0504332,-0.668965043 C37.13206,-1.53596781 37.1609513,-1.86259045 37.1905693,-2.2920338 C37.4331912,-5.80990067 37.3122401,-7.86280578 36.6361577,-9.39172079 C36.2586781,-10.2453656 34.1422836,-11.5348041 31.9005226,-12.4547196 C31.4866338,-12.6245604 30.9516531,-12.7574159 30.325907,-12.8518969 C29.4118011,-12.9899173 28.5802573,-13.0267399 27.5065186,-13.0267399 C26.7644298,-13.0267399 26.1749249,-13.0093112 25.485995,-12.9469806 C24.5080049,-12.8584974 23.6802383,-12.6956065 23.0932159,-12.4547196 C20.8514548,-11.5348041 18.7350603,-10.2453656 18.3575808,-9.39172079 C17.6814984,-7.86280578 17.5605473,-5.80990067 17.8031692,-2.2920338 C17.8327872,-1.86259045 17.8616784,-1.53596781 17.9433053,-0.668965043 C17.9623802,-0.466360083 17.9737189,-0.345062154 17.9856372,-0.215359719 C18.0600502,0.59444906 18.102735,1.16513398 18.1246817,1.72160875 C18.1584313,2.57735429 18.1502598,3.26675567 18.1070619,4.72426522 C18.0784634,5.68918743 18.0696993,6.08370018 18.0704922,6.58290375 C18.0726398,7.93494343 18.0811404,9.20065577 18.0976907,10.9797741 C18.1260217,14.0252938 18.1254348,13.9541897 18.1254348,14.739403 C18.1254348,15.2483091 18.1282996,15.5225854 18.1455292,16.8925091 C18.1759544,19.3116046 18.1759544,20.7283174 18.1249602,22.357463 C18.1130629,22.7375533 18.0927255,23.135309 18.0632618,23.5894552 C18.0437604,23.8900466 18.0251944,24.1476808 17.987314,24.6548363 C17.8547795,26.4292529 17.8196815,27.1540052 17.8535692,28.0143635 C17.9791251,31.2020393 18.4786427,33.4898151 19.4337385,35.4472055 C19.8700922,35.6227909 20.2713227,35.8248156 20.6810386,36.0888028 C21.0906633,36.3527314 21.4782192,36.6625506 21.8419156,37.0244598 C21.5312405,35.9568454 21.425878,34.8424356 21.2961087,34.0952499 C21.1508446,33.2588489 21.0555317,31.9625199 20.9520484,30.4078058 Z M21.9566348,35.6939483 C22.0246451,36.1971793 22.1120225,36.775286 22.2187672,37.4282683 C22.325561,37.5513723 22.4300294,37.6796298 22.5321202,37.8132222 C22.7072962,38.0424514 23.3994057,38.3697464 24.3703588,38.6183143 C25.3644277,38.8728 26.5372154,39.0239666 27.5065186,39.0267387 C27.5132035,39.0267387 27.5132035,39.0267387 27.5226912,39.0267387 C27.5279956,39.0267387 27.5276818,39.0267387 27.5277,39.0267387 L27.5332911,39.0267006 C28.5031116,39.0239498 29.6627242,38.873296 30.6450591,38.6189718 C31.6024322,38.3711102 32.2845377,38.0449436 32.4616183,37.8132222 C32.5391436,37.7117754 32.6180399,37.6134049 32.6982845,37.5180314 C32.8211822,36.7707385 32.9192365,36.1194931 32.9924473,35.5642954 C32.0204386,36.7418294 30.3483121,37.6444987 27.5065186,37.6444987 C24.7339214,37.6444987 22.8727348,36.9125713 21.9566348,35.6939483 Z M17.1638083,2.32558033 C17.1608045,2.13731757 17.1558123,1.94869534 17.148363,1.75981389 C17.0972996,0.46506538 16.9167768,-0.943846413 16.828395,-2.22532845 C16.6264183,-5.15386496 16.5936553,-7.81715563 17.4634083,-9.78404364 C18.0973711,-11.217708 21.1482798,-12.7092207 22.7210448,-13.354611 C24.2740723,-13.9919019 26.7103736,-14 27.5065186,-14 C28.2701494,-14 30.6999287,-14 32.2726937,-13.354611 C33.8454587,-12.7092207 36.8963674,-11.217708 37.5303302,-9.78404364 C38.4000832,-7.81715563 38.3673202,-5.15386496 38.1653435,-2.22532845 C38.0769616,-0.943846413 37.8964388,0.46506538 37.8453755,1.75981389 C37.8379838,1.94723351 37.8330114,2.13439791 37.8300003,2.32120914 C38.6024631,2.86640865 39.6525548,3.67015616 39.798619,3.9460041 C39.9148235,4.16546088 39.9575049,4.42184445 39.9839966,4.68022547 C40.0096648,4.93057447 40.0234382,5.18647959 39.8712951,5.18647959 C39.579282,5.18647959 38.0259783,4.5786257 37.8545056,4.39480206 C37.8758945,5.13879239 37.9014503,5.87087357 37.9003168,6.58444367 C37.8949841,9.9417198 37.8453755,12.8892328 37.8453755,14.739403 C37.8453755,16.6350924 37.7546055,19.4272445 37.8453755,22.3271323 C37.9062266,24.2711853 38.1866212,26.2719922 38.1164899,28.0525194 C37.9739455,31.6715062 37.3556458,34.1332343 36.2618205,36.2226251 C35.4634993,36.5070885 34.2851881,37.0338098 33.2390704,38.4027229 C32.5017586,39.3675433 29.6154465,39.99406 27.5360733,40 C27.5311524,40 27.5262265,40 27.5212956,40 C27.5163653,40 27.5114396,40 27.5065186,40 C25.4266882,39.9940607 22.4919803,39.3675438 21.7546681,38.4027229 C20.7085504,37.0338098 19.5302392,36.5070885 18.7319179,36.2226251 C17.6380927,34.1332343 17.019793,31.6715062 16.8772486,28.0525194 C16.8071173,26.2719922 17.0875119,24.2711853 17.148363,22.3271323 C17.239133,19.4272445 17.148363,16.6350924 17.148363,14.739403 C17.148363,12.8892328 17.0987544,9.9417198 17.0934217,6.58444367 C17.0922915,5.87295095 17.1176954,5.14305477 17.139046,4.40129956 C16.9385213,4.59250302 15.4173654,5.18647959 15.1287049,5.18647959 C14.9765618,5.18647959 14.9903352,4.93057447 15.0160034,4.68022547 C15.0424951,4.42184445 15.0851765,4.16546088 15.201381,3.9460041 C15.3470553,3.67089244 16.3919376,2.87069556 17.1638083,2.32558033 Z M37.8319847,3.44779904 C37.8339678,3.568313 37.8363911,3.68859313 37.839128,3.80861236 C37.839128,3.66935226 37.839128,3.54634485 37.839128,3.47528807 C37.839128,3.46456263 37.8367469,3.45539962 37.8319847,3.44779904 Z M19.8365052,10.5610949 C22.2486143,9.98687265 24.8058657,9.69976151 27.5082593,9.69976151 C30.2106529,9.69976151 32.7667438,9.98687265 35.1765319,10.5610949 L34.0774151,28.0093572 C31.6210213,28.4271424 29.4313027,28.636035 27.5082593,28.636035 C25.5852159,28.636035 23.3757638,28.4271424 20.8799029,28.0093572 L19.8365052,10.5610949 Z" id="Combined-Shape" transform="translate(27.500000, 13.000000) scale(-1, 1) rotate(90.000000) translate(-27.500000, -13.000000) "></path>
        </g>
    </g>
</svg>