<?xml version="1.0" encoding="UTF-8"?>
<svg width="56px" height="41px" viewBox="0 0 56 41" version="1.1" xmlns="http://www.w3.org/2000/svg" xmlns:xlink="http://www.w3.org/1999/xlink">
    <!-- Generator: Sketch 55.2 (78181) - https://sketchapp.com -->
    <title>MY_trunk</title>
    <desc>Created with Sketch.</desc>
    <defs>
        <polygon id="path-1" points="0.897 0.7358 10.199 0.7358 10.199 10 0.897 10"></polygon>
        <polygon id="path-3" points="0.6206 0.7358 9.9226 0.7358 9.9226 10 0.6206 10"></polygon>
        <polygon id="path-5" points="0 0 55.9877128 0 55.9877128 22.9892495 0 22.9892495"></polygon>
    </defs>
    <g id="MY_trunk" stroke="black" stroke-width="1" fill="none" fill-rule="evenodd" transform="translate(0.000000, 1.000000)">
        <g id="ICON_liftgate" stroke="black" fill="#000000" transform="translate(0.000000, 7.000000)">
            <g id="Group-3" stroke="black" fill="#000000" transform="translate(40.000000, 15.983000)">
                <mask stroke="black" id="mask-2" fill="white">
                    <use xlink:href="#path-1"></use>
                </mask>
                <g id="Clip-2" stroke="black" fill="#000000"></g>
                <path d="M5.548,0.7358 C8.119,0.7358 10.199,2.8068 10.199,5.3678 C10.199,7.9278 8.119,10.0008 5.548,10.0008 C2.978,10.0008 0.897,7.9278 0.897,5.3678 C0.897,2.8068 2.978,0.7358 5.548,0.7358 M5.65,7.8938 C7.054,7.8938 8.187,6.7568 8.187,5.3678 C8.187,3.9688 7.054,2.8408 5.65,2.8408 C4.254,2.8408 3.112,3.9688 3.112,5.3678 C3.112,6.7568 4.254,7.8938 5.65,7.8938" id="Fill-1" fill="#FFFFFF" mask="url(#mask-2)"></path>
            </g>
            <g id="Group-6" stroke="black" fill="#000000" transform="translate(4.000000, 15.983000)">
                <mask stroke="black" id="mask-4" fill="white">
                    <use xlink:href="#path-3"></use>
                </mask>
                <g id="Clip-5" stroke="black" fill="#000000"></g>
                <path d="M5.2716,0.7358 C7.8426,0.7358 9.9226,2.8068 9.9226,5.3678 C9.9226,7.9278 7.8426,10.0008 5.2716,10.0008 C2.7096,10.0008 0.6206,7.9278 0.6206,5.3678 C0.6206,2.8068 2.7096,0.7358 5.2716,0.7358 M5.3816,7.8938 C6.7766,7.8938 7.9186,6.7568 7.9186,5.3678 C7.9186,3.9688 6.7766,2.8408 5.3816,2.8408 C3.9776,2.8408 2.8446,3.9688 2.8446,5.3678 C2.8446,6.7568 3.9776,7.8938 5.3816,7.8938" id="Fill-4" fill="#FFFFFF" mask="url(#mask-4)"></path>
            </g>
            <g id="Group-9" stroke="black" fill="#000000" transform="translate(0.000000, 0.983000)">
                <mask id="mask-6" stroke="black" fill="white">
                    <use xlink:href="#path-5"></use>
                </mask>
                <g id="Clip-8" stroke="black" fill="#000000"></g>
                <path d="M2.0802,19.1694 L2.08521139,18.9044 C2.0862,18.8224 2.0212,18.7564 1.9392,18.7544 L0.5442,18.7304 C0.5282,18.7304 0.5142,18.7334 0.5012,18.7424 C0.4672,18.7654 0.4582,18.8114 0.4812,18.8444 L0.5952,19.0114 C0.7172,19.1894 0.9182,19.2964 1.1342,19.3004 L1.9302,19.3144 C2.0112,19.3154 2.0792,19.2504 2.0802,19.1694 M4.7202,14.1394 C5.1312,13.8964 5.5342,13.7034 5.8262,13.5244 C5.8852,13.4884 5.9312,13.4524 5.9762,13.4244 C5.4622,13.5764 4.9412,13.7374 4.4352,13.9054 C3.4762,14.2204 2.5222,14.5724 1.5762,14.9534 C1.4402,15.0764 1.4172,15.1274 1.3872,15.1934 C1.3482,15.2964 1.3512,15.5024 1.5372,15.5054 C1.7222,15.5094 2.5382,15.3534 2.9032,15.2204 C3.0812,15.1494 3.9132,14.6184 4.7202,14.1394 M13.4932,14.9984 C13.9602,14.8894 14.6842,14.5634 15.1422,14.2394 C14.5272,14.2294 13.6172,14.2424 12.8762,14.2884 C12.8722,14.5014 13.1842,14.8544 13.4932,14.9984 M39.7262,12.6174 C40.7632,12.5704 41.1022,12.5934 41.9522,12.4974 C42.1582,12.4204 42.3992,12.2474 42.3952,12.0634 L41.7742,12.0734 C41.6952,12.1924 41.6592,12.2374 41.4672,12.2634 C40.6912,12.3424 40.4402,12.3324 39.8412,12.3574 C39.7752,12.4104 39.6582,12.4784 39.7262,12.6174 M27.0552,13.0464 C26.9892,13.0994 26.8722,13.1674 26.9412,13.3064 C27.9762,13.2594 28.3162,13.2824 29.1662,13.1874 C29.3722,13.1094 29.6132,12.9364 29.6092,12.7524 L28.9882,12.7624 C28.9092,12.8824 28.8722,12.9264 28.6812,12.9524 C27.8982,13.0314 27.6542,13.0224 27.0552,13.0464 M54.6212,12.9354 L54.6442,11.5954 C54.6492,11.3524 54.4602,11.1574 54.2242,11.1524 C53.5022,11.1284 52.5172,11.1134 51.4242,11.1004 L48.8212,11.0024 L48.8172,11.0024 C48.7062,11.0004 48.6122,11.0874 48.6072,11.1994 C48.6032,11.3124 48.6922,11.4074 48.8072,11.4124 L51.0712,11.4974 C51.5292,11.9154 52.2312,12.3884 53.1722,12.9104 C53.4512,13.0114 53.9322,13.0194 54.6212,12.9354 M33.4312,6.0384 C33.4272,6.0364 33.4232,6.0354 33.4182,6.0344 C33.3772,6.0244 33.3362,6.0244 33.2982,6.0334 C32.9702,6.0234 32.6412,6.0144 32.3092,6.0084 C32.2432,6.0074 32.1842,6.0134 32.1252,6.0124 C32.0592,6.0114 31.9992,6.0104 31.9332,6.0164 L31.8292,6.0144 C29.0402,5.9104 26.5532,6.2464 24.3652,7.0224 C21.0842,8.1864 18.5092,10.1264 16.7402,11.5644 C16.7332,11.5634 16.7322,11.5714 16.7322,11.5714 C16.7392,11.6234 24.0132,11.3684 30.4552,11.0394 L31.8292,6.0224 C31.8582,6.0154 31.8952,6.0164 31.9332,6.0164 L33.1982,6.0224 L33.1852,6.0904 C33.1482,6.1234 33.1202,6.1684 33.1062,6.2194 C32.1512,10.0084 31.5922,12.8904 31.4302,14.8694 C31.3182,16.2304 31.2842,17.6114 31.3262,19.0174 C30.5122,19.0724 29.6752,19.1294 28.8142,19.1874 C25.8192,19.3884 21.9712,19.5644 17.2682,19.7164 C17.1272,19.7214 17.0162,19.8384 17.0202,19.9794 C17.0252,20.1194 17.1432,20.2304 17.2862,20.2254 C21.9932,20.0724 25.8472,19.8964 28.8492,19.6944 C29.7042,19.6374 30.5352,19.5804 31.3452,19.5254 C31.3642,19.9954 31.3922,20.4664 31.4302,20.9404 C31.4402,21.0804 31.5642,21.1864 31.7062,21.1754 C31.8472,21.1644 31.9532,21.0414 31.9412,20.9014 C31.9052,20.4294 31.8772,19.9584 31.8562,19.4914 C33.6902,19.3664 35.4032,19.2484 36.9942,19.1364 C37.1362,19.1264 37.2422,19.0044 37.2322,18.8644 C37.2222,18.7244 37.1002,18.6184 36.9582,18.6284 C35.3722,18.7394 33.6662,18.8574 31.8392,18.9824 C31.7982,17.6034 31.8332,16.2454 31.9412,14.9104 C32.0292,13.8444 32.2352,12.5034 32.5592,10.8904 C33.2932,10.8574 33.6592,10.8324 33.6592,10.8144 C37.5332,10.6024 39.6242,10.4304 40.5952,10.3514 C41.8472,10.2484 42.0932,10.2324 43.3452,10.0534 C44.5972,9.8744 46.2042,9.1344 46.9552,8.4504 C43.1582,6.9714 38.4442,6.2124 33.4312,6.0384 M44.0062,6.8604 L43.9772,6.9674 C46.8782,7.7304 48.9142,8.3834 50.0842,8.9274 C51.8392,9.7444 53.2652,10.8554 53.2652,10.8554 L54.7192,10.8554 C54.8242,10.9614 54.8732,11.2994 54.9052,11.7144 C54.8872,11.9684 54.8862,12.2324 54.9122,12.5034 C55.0132,13.5254 55.2772,14.9444 55.8552,15.7914 C55.9877128,16.4744 56.0502,17.7084 55.9012,18.2074 C55.4612,19.6904 55.2342,20.0594 54.6232,20.7404 C54.0442,21.1784 53.6622,21.2454 52.3712,21.5564 C52.3482,21.5624 51.4662,21.7664 50.8952,21.8534 C51.0152,21.4024 51.0782,20.9304 51.0782,20.4424 C51.0782,17.3844 48.5762,14.9034 45.4902,14.9034 C42.4042,14.9034 39.9022,17.3844 39.9022,20.4424 C39.9022,21.3674 40.1312,22.2394 40.5352,23.0064 C40.3582,22.9904 40.1352,22.9574 39.8542,22.9024 C38.4362,22.2224 15.0552,22.6124 14.7662,22.6304 C14.7152,22.6404 14.6112,22.6464 14.4622,22.6474 C14.7582,21.9724 14.9222,21.2264 14.9222,20.4424 C14.9222,17.3844 12.4212,14.9034 9.3342,14.9034 C6.2482,14.9034 3.7472,17.3844 3.7472,20.4424 C3.7472,21.2564 3.9232,22.0284 4.2412,22.7244 C4.2402,22.7364 4.2432,22.7494 4.2502,22.7634 C3.8592,22.6754 3.5252,22.4274 3.2692,22.2384 C1.5062,21.9594 0.6712,21.4854 0.4262,21.1494 C0.2872,20.6224 -0.0368,19.6444 0.0032,18.7904 C0.0572,17.6464 0.3082,17.3064 0.2252,16.5564 C0.1422,15.8054 0.1532,15.5074 0.2252,15.4414 C0.5682,15.1304 1.2502,14.7114 1.7762,14.4714 C2.4112,14.1804 4.2352,13.3824 5.2772,13.0464 C6.1332,12.7594 8.1692,12.0904 9.0392,11.8474 C9.7212,11.7144 12.4912,10.9534 13.9652,10.8834 C15.2722,10.2064 17.4812,8.7004 18.4582,8.2534 C21.4492,6.8764 22.1842,6.4374 23.9622,5.9014 C26.3272,5.1904 30.0232,4.7664 32.6272,4.8114 C33.6182,4.8284 37.7832,4.8574 41.7412,5.7304 C42.3202,5.8554 42.9842,6.0124 43.7472,6.2064 C44.2192,5.8794 44.7332,5.5304 45.2962,5.1554 C47.0272,4.0024 48.9192,2.8244 50.0142,2.1254 C52.9532,0.2564 52.8112,0.0444 52.9822,0.0174 C53.1492,-0.0046 53.7342,1.4334 55.0232,2.3104 C55.3072,2.5034 55.6362,2.7114 55.9852,2.9054 C55.8522,3.1074 55.1632,2.8154 54.6792,2.5104 C54.1712,2.1914 53.6872,1.5574 53.4562,1.6024 L52.6862,2.5104 C52.6862,2.5104 50.9112,2.8794 49.1522,3.6874 C48.0262,4.2044 46.3112,5.2624 44.0062,6.8604" id="Fill-7" fill="#FFFFFF" mask="url(#mask-6)"></path>
            </g>
        </g>
    </g>
</svg>