<?xml version="1.0" encoding="UTF-8"?>
<svg width="69px" height="40px" viewBox="0 0 69 40" version="1.1" xmlns="http://www.w3.org/2000/svg" xmlns:xlink="http://www.w3.org/1999/xlink">
    <!-- Generator: Sketch 55.2 (78181) - https://sketchapp.com -->
    <title>MX_roof</title>
    <desc>Created with Sketch.</desc>
    <g id="MX_roof" stroke="none" stroke-width="1" fill="none" fill-rule="evenodd">
        <g id="panoramic" transform="translate(0.000000, 4.000000)" fill="#000000" fill-rule="nonzero">
            <path d="M37.6533333,16 C37.6533333,21.5466667 37.5466667,25.6 37.5466667,25.6 C34.7733333,25.7066667 32.32,25.8133333 30.8266667,25.92 C27.2,26.1333333 20.0533333,26.7733333 18.24,26.9866667 C16.5333333,27.0933333 15.4666667,26.9866667 15.4666667,26.9866667 C15.04,25.92 13.5466667,21.5466667 13.5466667,16.1066667 C13.5466667,10.56 15.04,6.29333333 15.4666667,5.22666667 C15.4666667,5.22666667 16.5333333,5.12 18.24,5.22666667 C19.9466667,5.33333333 27.0933333,5.97333333 30.8266667,6.29333333 C32.32,6.4 34.88,6.50666667 37.5466667,6.61333333 C37.5466667,6.4 37.6533333,10.4533333 37.6533333,16 Z" id="Path"></path>
            <path d="M16.7466667,27.3066667 C15.8933333,27.3066667 15.4666667,27.2 15.4666667,27.2 L15.2533333,27.2 L15.1466667,27.0933333 C15.04,26.88 13.2266667,22.4 13.2266667,16.1066667 C13.2266667,9.70666667 15.1466667,5.22666667 15.1466667,5.12 L15.2533333,5.01333333 L15.4666667,5.01333333 C15.4666667,5.01333333 16.5333333,4.90666667 18.3466667,5.01333333 C18.88,5.01333333 20.0533333,5.12 21.44,5.22666667 C24.4266667,5.44 28.48,5.86666667 30.9333333,5.97333333 C32.2133333,6.08 34.3466667,6.18666667 37.6533333,6.29333333 L37.9733333,6.29333333 L37.9733333,6.61333333 C37.9733333,6.61333333 38.08,10.7733333 38.08,16.2133333 C38.08,21.6533333 37.9733333,25.7066667 37.9733333,25.8133333 L37.9733333,26.1333333 L37.6533333,26.1333333 C34.4533333,26.24 32.2133333,26.3466667 30.9333333,26.4533333 C28.48,26.6666667 24.4266667,26.9866667 21.44,27.2 C20.0533333,27.3066667 18.9866667,27.4133333 18.3466667,27.4133333 C17.7066667,27.2 17.1733333,27.3066667 16.7466667,27.3066667 L16.7466667,27.3066667 Z M15.68,26.6666667 C16,26.6666667 16.96,26.7733333 18.24,26.6666667 C18.7733333,26.6666667 19.9466667,26.56 21.3333333,26.4533333 C24.32,26.24 28.3733333,25.8133333 30.8266667,25.7066667 C32.1066667,25.6 34.24,25.4933333 37.3333333,25.3866667 C37.3333333,24.4266667 37.44,20.6933333 37.44,16.1066667 C37.44,11.52 37.3333333,7.78666667 37.3333333,6.82666667 C34.1333333,6.72 32.1066667,6.61333333 30.8266667,6.50666667 C28.3733333,6.29333333 24.32,5.97333333 21.3333333,5.76 C19.9466667,5.65333333 18.88,5.54666667 18.24,5.54666667 C16.96,5.44 16.1066667,5.54666667 15.68,5.54666667 C15.04,7.04 13.8666667,11.2 13.8666667,16 C13.8666667,20.8 15.04,24.96 15.68,26.6666667 Z" id="Shape"></path>
            <path d="M15.4666667,27.3066667 L12.5866667,26.6666667 C11.6266667,26.4533333 10.6666667,26.1333333 9.81333333,25.8133333 C8,25.1733333 6.08,24.4266667 4.48,23.36 C6.18666667,24.2133333 8.10666667,24.8533333 9.92,25.28 C10.88,25.4933333 11.84,25.7066667 12.8,25.8133333 C13.76,25.92 14.72,26.1333333 15.68,26.24 L15.4666667,27.3066667 L15.4666667,27.3066667 Z M15.68,5.86666667 C14.72,5.97333333 13.76,6.08 12.8,6.29333333 C11.84,6.4 10.88,6.61333333 9.92,6.82666667 C8,7.25333333 6.18666667,7.78666667 4.48,8.74666667 C6.08,7.68 7.89333333,6.93333333 9.81333333,6.29333333 C10.7733333,5.97333333 11.7333333,5.65333333 12.5866667,5.44 C13.5466667,5.22666667 14.5066667,4.90666667 15.4666667,4.8 L15.68,5.86666667 L15.68,5.86666667 Z M51.4133333,29.6533333 C50.1333333,29.6533333 49.3866667,29.5466667 48.4266667,29.44 L48.32,29.44 C47.7866667,29.44 47.2533333,29.3333333 46.8266667,29.2266667 C46.1866667,29.12 45.6533333,29.12 45.3333333,29.12 C45.0133333,29.12 41.92,29.2266667 35.84,29.2266667 C31.8933333,29.2266667 25.92,29.2266667 22.72,29.12 L22.72,27.9466667 C25.92,27.9466667 31.8933333,28.0533333 35.84,28.0533333 C41.92,28.0533333 44.9066667,27.9466667 45.2266667,27.9466667 C45.6533333,27.9466667 46.2933333,28.0533333 46.9333333,28.0533333 C47.36,28.16 47.8933333,28.16 48.4266667,28.2666667 L48.5333333,28.2666667 C49.8133333,28.3733333 50.88,28.48 53.12,28.3733333 C54.5066667,28.2666667 55.1466667,28.16 55.7866667,27.9466667 C56.2133333,27.84 56.7466667,27.6266667 57.4933333,27.52 C59.3066667,27.3066667 61.9733333,26.7733333 62.6133333,26.56 C63.04,26.4533333 63.04,26.4533333 63.4666667,25.92 L64.4266667,26.6666667 C63.8933333,27.3066667 63.68,27.6266667 62.8266667,27.7333333 C62.08,27.84 59.4133333,28.3733333 57.6,28.6933333 C56.8533333,28.8 56.4266667,28.9066667 56,29.0133333 C55.36,29.2266667 54.6133333,29.44 53.12,29.5466667 C52.48,29.5466667 51.9466667,29.6533333 51.4133333,29.6533333 L51.4133333,29.6533333 Z" id="Shape"></path>
            <path d="M13.76,29.5466667 C11.84,29.5466667 10.1333333,29.3333333 9.17333333,29.12 C8.53333333,29.0133333 8,28.8 7.57333333,28.5866667 C7.14666667,28.48 6.82666667,28.2666667 6.4,28.16 C5.12,27.84 4.58666667,27.3066667 3.84,26.1333333 C3.52,25.6 3.09333333,24.96 2.66666667,24.32 C2.34666667,23.7866667 2.02666667,23.2533333 1.81333333,23.04 C1.70666667,22.9333333 1.6,22.8266667 1.6,22.72 C1.17333333,22.1866667 0.746666667,21.6533333 0.64,21.0133333 C0.32,20.16 0,18.3466667 0,16 L1.17333333,16 C1.17333333,18.88 1.6,20.48 1.70666667,20.6933333 C1.81333333,21.12 2.24,21.5466667 2.56,22.08 C2.66666667,22.1866667 2.77333333,22.2933333 2.77333333,22.4 C2.98666667,22.72 3.30666667,23.2533333 3.62666667,23.7866667 C3.94666667,24.32 4.37333333,24.96 4.69333333,25.4933333 C5.33333333,26.4533333 5.76,26.7733333 6.50666667,26.9866667 C7.04,27.0933333 7.46666667,27.3066667 7.89333333,27.4133333 C8.32,27.6266667 8.74666667,27.7333333 9.28,27.84 C10.4533333,28.16 13.0133333,28.3733333 15.36,28.16 C16.64,28.0533333 17.28,27.9466667 17.8133333,27.84 C18.24,27.7333333 18.56,27.7333333 19.2,27.7333333 L21.12,27.7333333 L21.12,28.9066667 L19.2,28.9066667 C18.7733333,28.9066667 18.56,28.9066667 18.1333333,29.0133333 C17.6,29.12 16.96,29.2266667 15.5733333,29.3333333 C15.04,29.5466667 14.4,29.5466667 13.76,29.5466667 L13.76,29.5466667 Z M61.2266667,28.16 L60.9066667,26.9866667 C60.9066667,26.9866667 62.08,26.6666667 62.8266667,26.3466667 C63.5733333,26.0266667 64.4266667,25.0666667 65.3866667,23.4666667 C66.3466667,21.76 66.9866667,18.88 66.9866667,16.1066667 L68.2666667,16.1066667 C68.2666667,19.0933333 67.6266667,22.1866667 66.56,24.1066667 C65.4933333,25.92 64.5333333,27.0933333 63.4666667,27.52 C62.5066667,27.84 61.3333333,28.0533333 61.2266667,28.16 L61.2266667,28.16 Z" id="Shape"></path>
            <path d="M23.68,32 C23.4666667,32 23.2533333,32 22.9333333,31.8933333 C22.2933333,31.7866667 21.76,31.1466667 21.0133333,30.2933333 L20.9066667,30.1866667 C20.48,29.6533333 20.48,29.6533333 20.3733333,29.44 C20.3733333,29.44 20.2666667,29.3333333 20.16,29.12 C19.9466667,28.8 19.9466667,28.48 20.0533333,28.2666667 C20.16,27.9466667 20.48,27.84 20.8,27.84 L22.8266667,27.84 C23.04,27.84 23.2533333,27.9466667 23.36,28.2666667 L24.4266667,31.1466667 C24.5333333,31.36 24.4266667,31.4666667 24.4266667,31.68 C24.32,31.7866667 24.2133333,31.8933333 24,32 L23.68,32 L23.68,32 Z M21.5466667,29.12 C21.6533333,29.2266667 21.6533333,29.3333333 21.8666667,29.44 L21.9733333,29.5466667 C22.4,30.08 22.8266667,30.5066667 23.1466667,30.72 L22.4,29.12 L21.5466667,29.12 L21.5466667,29.12 Z M20.8,4.05333333 C20.48,4.05333333 20.16,3.94666667 20.0533333,3.62666667 C19.9466667,3.30666667 19.9466667,2.98666667 20.16,2.77333333 C20.2666667,2.56 20.2666667,2.56 20.3733333,2.45333333 C20.48,2.34666667 20.48,2.24 20.9066667,1.70666667 L21.0133333,1.6 C21.76,0.746666667 22.2933333,0.106666667 22.9333333,0 L24,0 C24.2133333,0 24.32,0.106666667 24.4266667,0.32 C24.5333333,0.426666667 24.5333333,0.64 24.4266667,0.853333333 L23.36,3.73333333 C23.2533333,3.94666667 23.04,4.16 22.8266667,4.16 C22.8266667,4.05333333 21.12,4.05333333 20.8,4.05333333 Z M22.9333333,1.28 C22.6133333,1.49333333 22.2933333,1.92 21.76,2.45333333 L21.6533333,2.56 L21.3333333,2.88 L22.1866667,2.88 L22.9333333,1.28 L22.9333333,1.28 Z M53.76,24.8533333 L53.2266667,24.5333333 C53.3333333,24.4266667 53.3333333,24.2133333 53.2266667,24.1066667 L53.2266667,16 L53.8666667,16 L53.8666667,24 C53.8666667,24.1066667 53.8666667,24.5333333 53.76,24.8533333 Z" id="Shape"></path>
            <path d="M42.88,18.4533333 C39.68,18.4533333 37.6533333,18.24 37.6533333,18.24 L37.76,17.6 C37.8666667,17.6 44.48,18.4533333 53.5466667,16.96 L53.6533333,17.6 C49.3866667,18.24 45.6533333,18.4533333 42.88,18.4533333 Z M63.5733333,5.97333333 C63.1466667,5.44 63.1466667,5.44 62.72,5.33333333 C62.08,5.22666667 59.4133333,4.69333333 57.6,4.37333333 C56.8533333,4.26666667 56.32,4.16 55.8933333,3.94666667 C55.2533333,3.73333333 54.6133333,3.52 53.2266667,3.52 C50.9866667,3.41333333 49.92,3.52 48.64,3.62666667 L48.4266667,3.62666667 C47.8933333,3.62666667 47.36,3.73333333 46.9333333,3.84 C46.2933333,3.94666667 45.76,3.94666667 45.2266667,3.94666667 C44.9066667,3.94666667 41.8133333,3.84 35.84,3.84 C31.8933333,3.84 25.92,3.84 22.72,3.94666667 L22.72,2.77333333 C25.92,2.77333333 31.8933333,2.66666667 35.84,2.66666667 C41.92,2.66666667 44.9066667,2.77333333 45.3333333,2.77333333 C45.6533333,2.77333333 46.1866667,2.66666667 46.8266667,2.66666667 C47.2533333,2.56 47.7866667,2.56 48.32,2.45333333 L48.5333333,2.45333333 C49.8133333,2.34666667 50.88,2.24 53.2266667,2.34666667 C54.72,2.45333333 55.4666667,2.66666667 56.1066667,2.88 C56.5333333,2.98666667 56.96,3.09333333 57.7066667,3.2 C59.52,3.41333333 62.1866667,3.94666667 62.9333333,4.16 C63.7866667,4.37333333 64,4.58666667 64.5333333,5.22666667 L63.5733333,5.97333333 Z M1.17333333,16 L0,16 C0,13.6533333 0.32,11.84 0.64,10.88 C0.853333333,10.24 1.28,9.70666667 1.6,9.17333333 C1.70666667,9.06666667 1.81333333,8.96 1.81333333,8.85333333 C2.02666667,8.64 2.34666667,8.10666667 2.66666667,7.57333333 C2.98666667,7.04 3.41333333,6.29333333 3.84,5.76 C4.58666667,4.69333333 5.12,4.05333333 6.4,3.73333333 C6.82666667,3.62666667 7.25333333,3.52 7.57333333,3.30666667 C8,3.2 8.53333333,2.98666667 9.17333333,2.88 C10.4533333,2.56 13.12,2.34666667 15.68,2.56 C17.0666667,2.66666667 17.7066667,2.77333333 18.24,2.88 C18.6666667,2.98666667 18.88,2.98666667 19.3066667,2.98666667 L21.2266667,2.98666667 L21.2266667,4.16 L19.3066667,4.16 C18.7733333,4.16 18.4533333,4.16 17.92,4.05333333 C17.4933333,3.94666667 16.7466667,3.84 15.4666667,3.73333333 C13.12,3.52 10.56,3.73333333 9.38666667,4.05333333 C8.85333333,4.16 8.42666667,4.37333333 8,4.48 C7.57333333,4.69333333 7.14666667,4.8 6.61333333,4.90666667 C5.86666667,5.12 5.44,5.33333333 4.8,6.4 C4.48,6.93333333 4.05333333,7.57333333 3.73333333,8.10666667 C3.41333333,8.74666667 3.09333333,9.17333333 2.88,9.49333333 C2.77333333,9.6 2.66666667,9.70666667 2.66666667,9.81333333 C2.34666667,10.24 1.92,10.7733333 1.81333333,11.2 C1.70666667,11.52 1.17333333,13.12 1.17333333,16 Z" id="Shape"></path>
            <path d="M68.2666667,16 L67.0933333,16 C67.0933333,13.2266667 66.4533333,10.3466667 65.4933333,8.64 C64.64,7.04 63.7866667,6.08 62.9333333,5.76 C62.08,5.44 61.0133333,5.12 61.0133333,5.12 L61.3333333,3.94666667 C61.3333333,3.94666667 62.6133333,4.26666667 63.4666667,4.58666667 C64.5333333,5.01333333 65.4933333,6.18666667 66.56,8 C67.6266667,9.92 68.2666667,13.0133333 68.2666667,16 Z M19.6266667,4.16 C19.4133333,3.84 19.4133333,3.62666667 19.4133333,3.52 L19.84,3.52 C19.84,3.52 19.84,3.73333333 19.9466667,3.84 L19.6266667,4.16 L19.6266667,4.16 Z M53.8666667,16 L53.2266667,16 L53.2266667,8 L53.2266667,7.46666667 L53.76,7.14666667 C53.9733333,7.46666667 53.8666667,7.89333333 53.8666667,8 L53.8666667,16 Z" id="Shape"></path>
            <path d="M53.5466667,15.04 C44.48,13.5466667 37.76,14.4 37.76,14.4 L37.6533333,13.8666667 C37.76,13.8666667 44.48,13.0133333 53.6533333,14.5066667 L53.5466667,15.04 Z" id="Path"></path>
            <path d="M16.64,27.3066667 C15.7866667,27.3066667 15.36,27.2 15.36,27.2 L15.1466667,27.2 L15.04,27.0933333 C14.9333333,26.88 13.12,22.4 13.12,16.1066667 C13.12,9.70666667 15.04,5.22666667 15.04,5.12 L15.1466667,5.01333333 L15.36,5.01333333 C15.36,5.01333333 16.4266667,4.90666667 18.24,5.01333333 C18.7733333,5.01333333 19.9466667,5.12 21.3333333,5.22666667 C24.32,5.44 28.3733333,5.86666667 30.8266667,5.97333333 C34.6666667,6.08 45.12,6.4 48.32,6.50666667 C53.0133333,6.61333333 58.6666667,7.25333333 61.76,7.68 L62.1866667,7.78666667 C63.4666667,8 64.5333333,8.96 64.7466667,10.24 C65.1733333,12.0533333 65.3866667,14.08 65.3866667,16 C65.3866667,17.92 65.1733333,19.9466667 64.7466667,21.76 C64.4266667,23.04 63.4666667,24 62.1866667,24.2133333 L61.76,24.32 C58.56,24.7466667 52.9066667,25.3866667 48.32,25.4933333 C45.2266667,25.6 34.6666667,25.92 30.72,26.24 C28.2666667,26.4533333 24.2133333,26.7733333 21.2266667,26.9866667 C19.84,27.0933333 18.7733333,27.2 18.1333333,27.2 C17.6,27.2 17.0666667,27.3066667 16.64,27.3066667 Z M15.5733333,26.6666667 C15.8933333,26.6666667 16.8533333,26.7733333 18.1333333,26.6666667 C18.6666667,26.6666667 19.84,26.56 21.2266667,26.4533333 C24.2133333,26.24 28.2666667,25.8133333 30.72,25.7066667 C34.6666667,25.3866667 45.2266667,25.0666667 48.32,24.96 C53.0133333,24.8533333 58.56,24.2133333 61.76,23.7866667 L62.1866667,23.68 C63.2533333,23.4666667 64.1066667,22.72 64.32,21.6533333 C64.7466667,19.84 64.8533333,17.92 64.8533333,16 C64.8533333,14.08 64.64,12.16 64.32,10.3466667 C64.1066667,9.28 63.2533333,8.53333333 62.1866667,8.32 L61.76,8.21333333 C58.6666667,7.78666667 53.0133333,7.25333333 48.32,7.04 C45.12,7.04 34.6666667,6.72 30.6133333,6.4 C28.16,6.18666667 24.1066667,5.86666667 21.12,5.65333333 C19.84,5.54666667 18.6666667,5.44 18.1333333,5.33333333 C16.8533333,5.22666667 16,5.33333333 15.5733333,5.33333333 C14.9333333,7.04 13.76,11.2 13.76,16 C13.76,20.8 14.9333333,24.96 15.5733333,26.6666667 Z" id="Shape"></path>
        </g>
    </g>
</svg>